<svg viewBox="0 0 512 512" xmlns="http://www.w3.org/2000/svg">
  <path fill="#563d7c" d="M106.344 58.49h299.31c23.932 0 43.365 19.433 43.365 43.365v308.281c0 23.932-19.433 43.365-43.365 43.365H106.344c-23.932 0-43.365-19.433-43.365-43.365V101.855c0-23.932 19.433-43.365 43.365-43.365z"/>
  <path fill="#fff" d="M208.65 303.334c0-17.334 11.686-27.514 31.226-27.514 19.314 0 31.639 10.049 31.639 27.514 0 17.465-12.325 27.645-31.639 27.645-19.54 0-31.226-10.18-31.226-27.645z"/>
  <path fill="#fff" d="M188.41 225.024h32.258c19.607 0 31.872 10.344 31.872 27.515 0 12.325-6.883 21.177-18.783 25.653 14.437 4.345 23.353 15.784 23.353 30.097 0 20.101-13.646 33.747-35.537 33.747H188.41V225.024z m31.388 23.615v22.31h9.712c8.217 0 12.887-3.475 12.887-11.162 0-7.687-4.67-11.148-12.887-11.148h-9.712z m0 44.49v24.585h11.032c8.476 0 13.146-3.475 13.146-12.292 0-8.817-4.67-12.293-13.146-12.293h-11.032z"/>
</svg>
