<svg viewBox="0 0 256 256" xmlns="http://www.w3.org/2000/svg">
  <path fill="#000" d="M255.956 133.907c0-18.044-1.5-33.542-4.413-46.132.747-5.329 1.131-10.879 1.131-16.673 0-33.542-16.865-63.022-43.693-80.5C194.4 2.475 171.199 0 145.738 0c-33.541 0-63.022 16.865-80.5 43.693C53.365 58.273 50.89 81.475 50.89 106.936c0 18.044 1.5 33.542 4.413 46.132-.747 5.329-1.131 10.879-1.131 16.673 0 33.542 16.865 63.022 43.693 80.5 14.581 11.873 37.782 14.348 63.243 14.348 33.541 0 63.022-16.865 80.5-43.693 11.873-14.581 14.348-37.782 14.348-63.243z"/>
  <path fill="#fff" d="M128 234c-58.8 0-106-47.2-106-106S69.2 22 128 22s106 47.2 106 106-47.2 106-106 106z"/>
  <path fill="#000" d="M146.83 80.11c-4.674-7.33-12.8-8.77-19.5-8.77-6.7 0-14.826 1.44-19.5 8.77-2.4 3.77-4.37 8.7-4.37 15.64v96.5c0 6.94 1.97 11.87 4.37 15.64 4.674 7.33 12.8 8.77 19.5 8.77 6.7 0 14.826-1.44 19.5-8.77 2.4-3.77 4.37-8.7 4.37-15.64v-96.5c0-6.94-1.97-11.87-4.37-15.64z"/>
</svg>
