<svg viewBox="0 0 512 512" xmlns="http://www.w3.org/2000/svg">
  <path fill="#4DB33D" d="M256 8C119.033 8 8 119.033 8 256s111.033 248 248 248 248-111.033 248-248S392.967 8 256 8z"/>
  <path fill="#fff" d="M175.622 371.332c-9.27 5.352-21.416 7.967-36.84 7.967-10.953 0-21.416-1.779-31.387-5.352l7.967-18.132c8.456 3.573 17.324 5.352 26.609 5.352 16.587 0 24.632-6.645 24.632-19.5v-10.539c-8.456 6.231-18.545 9.27-30.277 9.27-11.318 0-20.187-3.573-26.609-10.539-6.422-6.966-9.684-16.173-9.684-27.905s3.262-20.939 9.684-27.905c6.422-6.966 15.291-10.539 26.609-10.539 12.146 0 22.378 3.573 30.692 10.539v-8.456h21.831v89.568c.001 17.325-7.553 31.387-23.227 37.171z"/>
  <path fill="#fff" d="M199.263 319.57c0-7.138 2.615-13.16 7.845-18.066 5.23-4.906 11.732-7.359 19.504-7.359s14.274 2.453 19.504 7.359c5.23 4.906 7.845 10.928 7.845 18.066s-2.615 13.16-7.845 18.066c-5.23 4.906-11.732 7.359-19.504 7.359s-14.274-2.453-19.504-7.359c-5.23-4.906-7.845-10.928-7.845-18.066z"/>
  <path fill="#fff" d="M272.694 371.332c-9.27 5.352-21.416 7.967-36.84 7.967-10.953 0-21.416-1.779-31.387-5.352l7.967-18.132c8.456 3.573 17.324 5.352 26.609 5.352 16.587 0 24.632-6.645 24.632-19.5v-10.539c-8.456 6.231-18.545 9.27-30.277 9.27-11.318 0-20.187-3.573-26.609-10.539-6.422-6.966-9.684-16.173-9.684-27.905s3.262-20.939 9.684-27.905c6.422-6.966 15.291-10.539 26.609-10.539 12.146 0 22.378 3.573 30.692 10.539v-8.456h21.831v89.568c.001 17.325-7.553 31.387-23.227 37.171z"/>
  <path fill="#fff" d="M330.331 332.237c-12.56 0-22.792-4.492-30.692-13.475-7.9-8.983-11.85-20.301-11.85-33.953s3.95-24.97 11.85-33.953c7.9-8.983 18.132-13.475 30.692-13.475s22.792 4.492 30.692 13.475c7.9 8.983 11.85 20.301 11.85 33.953s-3.95 24.97-11.85 33.953c-7.9 8.983-18.132 13.475-30.692 13.475z"/>
</svg>
