<svg viewBox="0 0 512 512" xmlns="http://www.w3.org/2000/svg">
  <path fill="#8CC84B" d="M255.5 495.4c-6.4 0-12.8-1.7-18.4-4.9l-58.5-34.6c-8.7-4.9-4.5-6.6-1.6-7.6 11.7-4 14-5 26.5-12 1.3-.7 3-.4 4.3.3l45.5 27c1.6.9 3.9.9 5.4 0l177.2-102.2c1.6-.9 2.7-2.8 2.7-4.7V154.9c0-2-.9-3.8-2.7-4.8L302.8 47.9c-1.6-.9-3.8-.9-5.4 0L120.2 150.1c-1.8 1-2.8 2.9-2.8 4.8v204.3c0 1.9 1.1 3.8 2.8 4.7l48.5 28.1c26.3 13.2 42.6-2.3 42.6-17.7V168.2c0-2.8 2.3-5.1 5.1-5.1H228c2.8 0 5.1 2.3 5.1 5.1v201.5c0 35.1-19.1 55.3-52.5 55.3-10.2 0-18.3 0-40.8-11.1L102.4 394c-11.3-6.5-18.3-18.5-18.3-31.4V154.9c0-12.9 7-24.9 18.3-31.4l177.2-102.2c11-6.4 25.6-6.4 36.6 0l177.2 102.2c11.3 6.5 18.3 18.5 18.3 31.4v207.8c0 12.9-7 24.9-18.3 31.4L274.7 490.5c-5.7 3.2-12 4.9-19.2 4.9z"/>
  <path fill="#8CC84B" d="M309.7 356c-76.7 0-92.8-35.2-92.8-64.8 0-2.8 2.3-5.1 5.1-5.1H234c2.5 0 4.6 1.8 5 4.3 3.4 23.1 13.6 34.7 70.7 34.7 43.5 0 62.1-9.9 62.1-33.1 0-13.4-5.3-23.3-72.9-30-56.1-5.6-90.9-17.9-90.9-62.7 0-41.3 34.8-65.9 93.2-65.9 65.6 0 97.8 22.8 101.8 71.4.2 1.3-.3 2.5-1.3 3.4-.9.9-2.2 1.4-3.5 1.4h-12.2c-2.3 0-4.4-1.6-4.9-3.9-5.4-24.1-18.7-31.8-79.9-31.8-58.9 0-65.7 20.5-65.7 35.9 0 15.1 8.1 19.5 70.6 28.1 61.7 8.5 93.3 20.5 93.3 64.5 0 44.7-37.2 70.2-102.1 70.2z"/>
</svg>
