<svg viewBox="0 0 512 512" xmlns="http://www.w3.org/2000/svg">
  <path fill="#007ACC" d="M20 20v472h472V20H20zm427.8 360.2c-5.4 10.4-12.6 18.8-21.4 25.2-8.8 6.4-18.8 11.4-30 15s-23.2 5.4-36 5.4c-10.8 0-20.6-1.8-29.4-5.4s-16.2-8.6-22.2-15-10.6-14-13.8-22.8-4.8-18.2-4.8-28.2V245.8c0-10 1.6-19.4 4.8-28.2s7.8-16.2 13.8-22.8 13.4-11.6 22.2-15 18.6-5.4 29.4-5.4c12.8 0 24.8 1.8 36 5.4s21.2 8.6 30 15 15.8 14.8 21.4 25.2 8.4 22.8 8.4 37.2v5.4H355.6v-5.4c0-7.2-2.2-12.8-6.6-16.8s-10.4-6-18-6-13.6 2-18 6-6.6 9.6-6.6 16.8v108.8c0 7.2 2.2 12.8 6.6 16.8s10.4 6 18 6 13.6-2 18-6 6.6-9.6 6.6-16.8v-5.4h70.2v5.4c0 14.4-2.8 27.2-8.4 37.2zM235.2 380.2c-5.4 10.4-12.6 18.8-21.4 25.2-8.8 6.4-18.8 11.4-30 15s-23.2 5.4-36 5.4-27.2-1.8-36-5.4-21.2-8.6-30-15-15.8-14.8-21.4-25.2S51.8 357.4 51.8 343v-5.4h70.2v5.4c0 7.2 2.2 12.8 6.6 16.8s10.4 6 18 6 13.6-2 18-6 6.6-9.6 6.6-16.8c0-5.4-1.4-10-4.2-13.8s-6.6-7.2-11.4-10.2-10.2-5.8-16.2-8.4-12.2-5.4-18.6-8.4-12.4-6.4-18.6-10.2-11.4-8.2-16.2-13.2-8.4-10.8-11.4-17.4-4.2-14.2-4.2-22.8c0-14.4 2.8-27.2 8.4-37.2s12.6-18.8 21.4-25.2 18.8-11.4 30-15 23.2-5.4 36-5.4 27.2 1.8 36 5.4 21.2 8.6 30 15 15.8 14.8 21.4 25.2 8.4 22.8 8.4 37.2v5.4h-70.2v-5.4c0-7.2-2.2-12.8-6.6-16.8s-10.4-6-18-6-13.6 2-18 6-6.6 9.6-6.6 16.8c0 5.4 1.4 10 4.2 13.8s6.6 7.2 11.4 10.2 10.2 5.8 16.2 8.4 12.2 5.4 18.6 8.4 12.4 6.4 18.6 10.2 11.4 8.2 16.2 13.2 8.4 10.8 11.4 17.4 4.2 14.2 4.2 22.8c0 14.4-2.8 27.2-8.4 37.2z"/>
</svg>
